/* XPM */
static char * box2_xpm[] = {
"15 15 3 1",
" 	g None",
".	g #5635AA",
"+	g #000000",
"               ",
"             . ",
"            .. ",
"   ++++++++..  ",
"   +      ..   ",
"   +     ..+   ",
"   +    .. +   ",
"  ..    .. +   ",
"   ..  ..  +   ",
"   +....   +   ",
"   + ..    +   ",
"   +++++++++   ",
"               ",
"               ",
"               "};
