/* XPM */
static char * circle2_xpm[] = {
"15 15 3 1",
" 	g None",
".	g #5735AB",
"+	g #000000",
"               ",
"             . ",
"            .. ",
"      +++  ..  ",
"    ++   +..   ",
"    +    ..    ",
"   +    .. +   ",
"  ..    .. +   ",
"   ..  ..  +   ",
"    ....  +    ",
"    +..  ++    ",
"      +++      ",
"               ",
"               ",
"               "};
