/* XPM */
static char * gnome_note_xpm[] = {
"24 24 151 2",
"  	c None",
". 	c #D0B99F",
"+ 	c #CFB79D",
"@ 	c #CCB39A",
"# 	c #C9B096",
"$ 	c #C5AB92",
"% 	c #BFA58B",
"& 	c #C3A98F",
"* 	c #CCB49B",
"= 	c #CEB69D",
"- 	c #CBB299",
"; 	c #C8B096",
"> 	c #C7AD94",
", 	c #E8DBC5",
"' 	c #B79C82",
") 	c #B1957A",
"! 	c #CAB197",
"~ 	c #C8AF96",
"{ 	c #AE9882",
"] 	c #EEE3CF",
"^ 	c #DAC8B0",
"/ 	c #AC9279",
"( 	c #A4876D",
"_ 	c #BA9E84",
": 	c #A6907B",
"< 	c #BCA38B",
"[ 	c #B69E87",
"} 	c #978370",
"| 	c #7F6E5E",
"1 	c #9A8672",
"2 	c #B49B83",
"3 	c #9E8066",
"4 	c #A18369",
"5 	c #A2876E",
"6 	c #B89C82",
"7 	c #A28D78",
"8 	c #63564A",
"9 	c #B09A84",
"0 	c #796A5A",
"a 	c #A48E79",
"b 	c #AE9984",
"c 	c #B29C85",
"d 	c #88735F",
"e 	c #A88E75",
"f 	c #84715F",
"g 	c #8D7B69",
"h 	c #76685A",
"i 	c #A6937F",
"j 	c #867666",
"k 	c #887868",
"l 	c #897968",
"m 	c #B7A28B",
"n 	c #CFB89E",
"o 	c #AE9B86",
"p 	c #8C7C6B",
"q 	c #7C6D5E",
"r 	c #786C5D",
"s 	c #998A78",
"t 	c #B8A691",
"u 	c #AB9A87",
"v 	c #C6B29C",
"w 	c #D5C0A7",
"x 	c #D5BEA6",
"y 	c #D4BEA5",
"z 	c #BFAB95",
"A 	c #D6C6B0",
"B 	c #AC9D8B",
"C 	c #DBC8B0",
"D 	c #B7A895",
"E 	c #E0CEB8",
"F 	c #E0CFB8",
"G 	c #E0CEB6",
"H 	c #DECCB4",
"I 	c #DCCAB2",
"J 	c #DAC6AF",
"K 	c #D9C4AC",
"L 	c #D7C2A9",
"M 	c #8D7F6F",
"N 	c #EDE4D1",
"O 	c #E3D7C3",
"P 	c #EADCC6",
"Q 	c #E8DAC5",
"R 	c #E8DAC4",
"S 	c #E7D8C2",
"T 	c #E5D5BF",
"U 	c #E2D1BA",
"V 	c #E0CEB7",
"W 	c #DECBB4",
"X 	c #DCC8B0",
"Y 	c #D1BDA6",
"Z 	c #DFDBCE",
"` 	c #F4EDDC",
" .	c #F1E8D5",
"..	c #EFE4D1",
"+.	c #EEE2CF",
"@.	c #EDE2CD",
"#.	c #ECE0CC",
"$.	c #EADEC8",
"%.	c #E5D5BE",
"&.	c #DFCDB6",
"*.	c #DCC9B1",
"=.	c #B4A48F",
"-.	c #BCBBB5",
";.	c #F9F6EB",
">.	c #F6F2E2",
",.	c #F4EEDD",
"'.	c #F2EAD9",
").	c #F1E9D6",
"!.	c #F0E6D4",
"~.	c #EBDEC9",
"{.	c #E5D6C0",
"].	c #E3D2BB",
"^.	c #CEBDA8",
"/.	c #675E53",
"(.	c #FDFCF6",
"_.	c #FBFAF0",
":.	c #F9F6E9",
"<.	c #F7F2E4",
"[.	c #F6F0DF",
"}.	c #F3ECDA",
"|.	c #F0E7D4",
"1.	c #EBDFCA",
"2.	c #D7CAB6",
"3.	c #776F64",
"4.	c #090908",
"5.	c #040404",
"6.	c #F5F6F3",
"7.	c #FEFEFB",
"8.	c #FDFDF6",
"9.	c #FAF8EE",
"0.	c #F8F4E6",
"a.	c #F6F0E0",
"b.	c #F3ECDB",
"c.	c #CBC4B3",
"d.	c #68635A",
"e.	c #000000",
"f.	c #030303",
"g.	c #060606",
"h.	c #CCCDCB",
"i.	c #FEFFFC",
"j.	c #FDFDF7",
"k.	c #F2F0E6",
"l.	c #B0ADA3",
"m.	c #43413D",
"n.	c #010101",
"o.	c #020202",
"p.	c #FAFBF8",
"q.	c #CDCECC",
"r.	c #777776",
"s.	c #151515",
"t.	c #050505",
"                                                ",
"                                                ",
"                                                ",
"                                                ",
"                                                ",
"                    . + @ # $                   ",
"              % & * = * - ; >                   ",
"            , ' ) $ ! # ~ > > {                 ",
"          ] ^ / ( _ : < [ } | 1                 ",
"          2 3 4 5 6 7 8 9 0 a ~ b               ",
"          c d e f g h i j k l m n               ",
"            o p q r s t u v w x y z             ",
"            A B C D E F G H I J K L M           ",
"            N O P Q , R S T U V W X Y           ",
"            Z `  ...+.@.#.$.R %.U &.*.=.        ",
"            -.;.>.,.'.).!.+.~.Q {.].^./.        ",
"              (._.:.<.[.}.|.] 1.2.3.4.5.        ",
"              6.7.8.9.0.a.b.c.d.e.f.g.          ",
"              h.i.i.j.k.l.m.n.o.f.              ",
"                p.q.r.s.o.5.                    ",
"                  5.t.g.                        ",
"                                                ",
"                                                ",
"                                                "};
