/* XPM */
static char * text_xpm[] = {
"15 15 69 1",
" 	c None",
".	c #CFB89F",
"+	c #CDB59B",
"@	c #C9AF96",
"#	c #C7B098",
"$	c #BCA188",
"%	c #CAB298",
"&	c #CAB197",
"*	c #C8AE95",
"=	c #B69E87",
"-	c #D0BEA7",
";	c #B0967D",
">	c #AC8F75",
",	c #C3A88F",
"'	c #C7AD94",
")	c #C7AD93",
"!	c #C8AF95",
"~	c #AF977F",
"{	c #AD9278",
"]	c #B39980",
"^	c #C5AC92",
"/	c #C9B096",
"(	c #CBB298",
"_	c #CDB59C",
":	c #B9A48D",
"<	c #B7A895",
"[	c #D5C0A9",
"}	c #D7C2AA",
"|	c #DCC8B1",
"1	c #DCC9B1",
"2	c #DAC6AE",
"3	c #D8C3AB",
"4	c #D5C0A7",
"5	c #847768",
"6	c #ECE1CD",
"7	c #E9DCC7",
"8	c #E9DBC6",
"9	c #E8D9C4",
"0	c #E5D6BF",
"a	c #E1D0B9",
"b	c #DECBB3",
"c	c #CDBAA3",
"d	c #F2EEE2",
"e	c #F4EDDC",
"f	c #F1E8D6",
"g	c #EFE6D2",
"h	c #ECE1CC",
"i	c #E8DAC4",
"j	c #E4D3BD",
"k	c #D2C1AB",
"l	c #595148",
"m	c #DFDFDB",
"n	c #FCFAF2",
"o	c #F8F5E8",
"p	c #F5EFDF",
"q	c #F1E8D5",
"r	c #DAD0BD",
"s	c #867E71",
"t	c #151312",
"u	c #030303",
"v	c #B2B3B1",
"w	c #FEFFFC",
"x	c #F7F7F1",
"y	c #CCC9BF",
"z	c #716E66",
"A	c #11100F",
"B	c #999A98",
"C	c #40403F",
"D	c #070707",
"               ",
"               ",
"               ",
"      .+@      ",
"    #$%&*=     ",
"   -;>,')!     ",
"   ~{]^/(_:    ",
"   <[}|12345   ",
"    67890abc   ",
"    defghijkl  ",
"    mnopqrstu  ",
"    vwxyzAu    ",
"     BCD       ",
"               ",
"               "};
